<?xml version="1.0" standalone="no"?>
<!DOCTYPE svg PUBLIC "-//W3C//DTD SVG 20010904//EN"
 "http://www.w3.org/TR/2001/REC-SVG-20010904/DTD/svg10.dtd">
<svg version="1.0" xmlns="http://www.w3.org/2000/svg"
 width="512.000000pt" height="512.000000pt" viewBox="0 0 512.000000 512.000000"
 preserveAspectRatio="xMidYMid meet">
<metadata>
Created by potrace 1.14, written by Peter Selinger 2001-2017
</metadata>
<g transform="translate(0.000000,512.000000) scale(0.100000,-0.100000)"
fill="#000000" stroke="none">
<path d="M2540 5106 c-21 -16 -70 -83 -70 -95 0 -6 -4 -11 -10 -11 -5 0 -10
-6 -10 -14 0 -7 -8 -24 -18 -37 -11 -13 -32 -49 -49 -79 -16 -30 -35 -64 -41
-75 -6 -11 -13 -27 -17 -35 -3 -8 -11 -24 -18 -35 -22 -35 -107 -205 -106
-211 0 -4 -3 -10 -8 -13 -7 -5 -174 -334 -178 -351 -4 -15 -51 -106 -58 -111
-5 -3 -9 -9 -9 -12 0 -20 -12 -47 -21 -47 -6 0 -7 -3 -4 -6 3 -4 1 -16 -5 -28
-7 -11 -12 -25 -13 -29 0 -4 -6 -11 -13 -16 -8 -5 -13 -12 -13 -17 1 -17 -23
-74 -31 -74 -4 0 -7 -3 -6 -7 1 -5 -13 -39 -32 -78 -19 -38 -35 -72 -35 -75
-1 -3 -16 -36 -35 -75 -19 -38 -34 -72 -35 -75 -1 -3 -27 -58 -58 -124 -31
-65 -57 -120 -57 -121 0 -2 -21 -47 -47 -102 -25 -54 -48 -105 -49 -113 -2 -8
-8 -16 -14 -18 -5 -2 -8 -7 -5 -12 11 -17 -31 -51 -69 -56 -21 -2 -57 -9 -80
-15 -23 -5 -48 -11 -56 -13 -8 -1 -34 -6 -57 -11 -24 -4 -43 -11 -43 -16 0 -5
-7 -6 -15 -3 -8 3 -20 2 -27 -2 -7 -5 -19 -9 -27 -11 -8 -1 -37 -9 -65 -18
-28 -10 -58 -19 -66 -20 -8 -2 -16 -4 -17 -5 -2 -2 -6 -3 -10 -4 -5 -1 -17 -7
-28 -13 -11 -6 -24 -12 -30 -13 -20 -5 -61 -22 -109 -46 -28 -13 -54 -24 -58
-24 -5 0 -7 27 -6 60 2 35 -1 60 -7 60 -7 0 -7 3 0 8 6 4 10 56 10 120 0 68
-4 112 -10 112 -7 0 -7 3 0 8 6 4 10 34 10 67 0 33 -4 63 -10 67 -7 5 -7 8 0
8 6 0 10 16 10 35 0 19 -4 35 -10 35 -7 0 -7 3 0 8 6 4 10 21 10 37 0 17 -4
33 -10 37 -7 5 -7 8 0 8 6 0 11 10 11 23 3 31 10 69 19 89 4 9 4 22 0 28 -3 5
-1 10 4 10 6 0 10 3 10 8 -1 4 0 9 1 12 1 3 3 12 5 20 1 9 13 51 25 95 12 44
24 91 26 105 15 84 38 139 73 175 42 45 89 122 95 157 3 13 5 24 7 26 1 1 2 5
3 10 1 4 4 12 7 17 6 11 2 151 -5 175 -2 8 -7 25 -11 37 -4 12 -6 25 -5 29 1
4 -2 10 -7 13 -5 3 -21 26 -35 51 -35 61 -66 93 -130 134 -122 77 -274 88
-403 27 -38 -17 -77 -41 -87 -51 -10 -10 -24 -22 -31 -27 -22 -14 -74 -86 -95
-134 -42 -92 -48 -175 -20 -299 6 -29 61 -125 81 -142 11 -10 17 -18 12 -18
-4 0 4 -9 18 -20 14 -11 28 -36 32 -57 5 -21 10 -42 11 -48 2 -5 11 -39 20
-75 8 -36 18 -72 21 -80 3 -8 8 -24 10 -35 2 -11 8 -38 14 -60 6 -22 13 -47
15 -55 2 -8 9 -33 15 -55 8 -29 12 -357 13 -1209 l1 -1169 -33 -3 c-35 -4
-106 -37 -117 -54 -4 -6 -9 -9 -13 -7 -4 2 -15 -4 -24 -15 -10 -10 -15 -18
-11 -18 4 0 -2 -7 -13 -15 -12 -8 -26 -27 -32 -42 -5 -15 -13 -37 -18 -48 -12
-34 -14 -48 -18 -128 -2 -42 0 -80 5 -83 4 -2 6 -10 3 -17 -2 -7 4 -38 14 -69
11 -32 15 -59 10 -60 -4 -2 -10 -13 -13 -26 -2 -12 -7 -28 -12 -35 -4 -6 -8
-121 -9 -254 l-1 -243 2203 0 c1458 0 2205 3 2209 10 3 5 0 10 -7 10 -8 0 -9
3 -3 8 6 4 10 55 10 117 0 62 -4 113 -10 117 -7 5 -6 8 1 8 5 0 9 12 8 27 -5
70 -15 141 -23 171 -5 18 -10 36 -10 40 -2 19 -36 109 -47 127 -8 11 -14 26
-14 33 0 7 -7 20 -15 29 -8 8 -13 19 -10 24 4 5 2 9 -3 9 -6 0 -24 22 -41 48
-25 40 -82 101 -166 179 -8 7 -18 13 -24 13 -6 0 -11 5 -11 10 0 6 -7 10 -15
10 -8 0 -15 3 -15 8 0 4 -15 13 -32 21 -18 8 -35 17 -38 21 -3 3 -30 16 -60
27 -30 12 -64 25 -75 29 -11 4 -27 9 -35 10 -8 1 -27 7 -42 13 -20 8 -28 7
-28 0 0 -8 -4 -8 -14 0 -7 6 -58 13 -112 16 -55 2 -102 4 -107 4 -4 1 -5 13
-1 29 11 46 13 201 3 208 -5 3 -7 9 -4 14 3 5 1 19 -5 30 -8 15 -8 20 1 20 15
0 36 26 56 70 23 49 25 63 27 166 1 90 1 91 29 104 16 7 31 20 34 29 3 9 13
24 21 34 8 9 12 17 7 17 -4 0 -3 6 2 13 6 6 16 35 23 62 6 28 14 57 16 67 3 9
12 15 22 14 9 -2 28 1 42 5 14 4 39 10 55 13 114 19 392 93 401 107 3 5 12 9
19 9 8 0 40 12 72 27 32 14 61 26 65 25 3 -1 12 5 18 13 7 8 17 15 22 15 10 0
79 51 110 82 9 9 24 37 32 61 25 74 -2 146 -84 225 -59 58 -78 73 -86 71 -4 0
-10 4 -13 9 -6 9 -145 90 -159 93 -4 0 -26 9 -49 20 -23 10 -49 19 -57 19 -8
0 -16 4 -18 10 -1 5 -15 11 -30 12 -16 1 -28 7 -28 12 0 5 -3 7 -6 3 -3 -3
-29 3 -58 14 -28 12 -52 20 -53 20 -2 -1 -4 -1 -5 0 -2 0 -10 2 -18 4 -8 2
-26 7 -40 10 -14 3 -36 8 -49 11 -14 3 -28 7 -32 9 -4 3 -51 14 -105 24 -55
11 -106 23 -115 26 -15 5 -33 34 -38 60 -2 6 -7 16 -13 23 -6 6 -7 12 -4 12 4
0 0 7 -8 16 -9 8 -14 20 -11 25 4 5 2 9 -3 9 -5 0 -13 10 -17 23 -10 30 -9 27
-32 77 -12 25 -40 85 -63 134 -22 49 -55 119 -73 155 -17 36 -32 68 -33 71 -1
8 -84 184 -95 200 -5 8 -12 22 -15 30 -7 18 -65 140 -134 282 -29 59 -52 111
-53 115 0 4 -5 13 -9 18 -16 19 -225 445 -219 445 3 0 1 4 -5 8 -6 4 -32 48
-59 97 -62 116 -82 151 -101 181 -9 13 -13 24 -8 24 5 0 -2 7 -14 16 -12 8
-22 20 -22 25 0 9 -34 62 -55 84 -17 19 -40 23 -55 11z m-1645 -3006 c17 -5
41 -11 55 -14 14 -3 59 -14 100 -25 41 -11 76 -18 78 -16 3 2 12 0 21 -4 9 -5
35 -11 58 -14 85 -12 90 -15 98 -60 4 -23 9 -48 11 -55 9 -44 58 -122 82 -133
27 -12 28 -14 27 -96 -1 -46 3 -86 7 -89 5 -3 6 -10 2 -15 -7 -12 35 -119 46
-119 5 0 16 -7 25 -16 12 -12 13 -19 4 -30 -6 -8 -9 -21 -5 -29 3 -8 1 -15 -4
-15 -4 0 -8 -40 -7 -90 0 -49 4 -90 8 -90 3 0 6 -12 5 -26 -1 -26 -2 -27 -91
-30 -102 -4 -153 -9 -175 -17 -8 -2 -35 -10 -60 -17 -56 -16 -189 -77 -212
-98 -16 -13 -21 -12 -50 18 -47 46 -71 61 -141 85 l-62 21 0 64 c0 36 -4 68
-10 72 -7 5 -7 8 0 8 6 0 10 11 10 25 0 14 -4 25 -10 25 -7 0 -7 3 0 8 6 4 10
21 10 37 0 17 -4 33 -10 37 -7 5 -7 8 0 8 6 0 10 16 10 35 0 19 -4 35 -10 35
-7 0 -7 3 0 8 6 4 10 21 10 37 0 17 -4 33 -10 37 -7 5 -7 8 0 8 6 0 10 16 10
35 0 19 -4 35 -10 35 -7 0 -7 3 0 8 6 4 10 21 10 37 0 17 -4 33 -10 37 -7 5
-7 8 0 8 6 0 10 16 10 35 0 19 -4 35 -10 35 -7 0 -7 3 0 8 6 4 10 21 10 37 0
17 -4 33 -10 37 -7 5 -7 8 0 8 6 0 10 48 10 125 0 77 -4 125 -10 125 -5 0 -4
4 4 9 10 6 39 1 85 -15 39 -13 85 -28 101 -34z"/>
</g>
</svg>
